<svg width="704" height="526" fill="none" xmlns="http://www.w3.org/2000/svg"><circle r="201.021" transform="matrix(.86603 .5 -.86603 .5 351.918 228.199)" stroke="#FF2F55" stroke-width="4.318"/><circle r="147.846" transform="matrix(.86603 .5 -.86603 .5 352.356 227.939)" stroke="#FF2F55" stroke-opacity=".8" stroke-width="4.318" stroke-dasharray="8.64 8.64"/><path transform="matrix(.76762 .6409 0 1 444.765 45.348)" fill="url(#paint0_linear)" d="M0 0h43.845v158.958H0z"/><path transform="matrix(.76762 .6409 0 1 417.129 22.454)" fill="url(#paint1_linear)" d="M0 0h43.845v158.958H0z"/><circle r="117.548" transform="matrix(.86603 .5 -.86603 .5 352.356 227.939)" stroke="#FF2F55" stroke-opacity=".5" stroke-width="4.318" stroke-dasharray="17.27 8.64"/><circle r="91.067" transform="matrix(.86603 .5 -.86603 .5 352.356 227.939)" stroke="#FF2F55" stroke-opacity=".2" stroke-width="4.318"/><g filter="url(#filter0_f)"><circle r="201.021" transform="matrix(.86603 .5 -.86603 .5 351.918 228.225)" stroke="#FF738C" stroke-width="4.318"/></g><g filter="url(#filter1_dddddd)"><path fill-rule="evenodd" clip-rule="evenodd" d="M369.718 42.02l-2.673-3.626.536-.395 2.856 3.875.321-.066.125.618-.034.007 56.797 77.057-.536.395-56.98-77.306-5.632 1.145.894 1.214.313-.064.125.618-.025.005.393.534 2.618-.52 48.501 65.808-2.102 1.222 7.343 9.963-.535.395-7.386-10.022-1.42.825-.017 6.011 1.657 2.249 59.166 53.256-41.643 24.165 41.643-24.165-.134 48.128 17.82 10.288v7.021l-132.644 76.577-171.661-99.1v-7.022l31.957-18.449.216-76.145-7.62 1.514 1.671-.972-5.831 1.185-.125-.617 7.658-1.557 3.666-2.131-6.138 1.248-.126-.618 7.966-1.619 3.671-2.133-6.459 1.313-.126-.618 8.287-1.684 3.69-2.145-6.799 1.381-.125-.618 8.625-1.752 3.674-2.135-7.122 1.448-.125-.618 8.949-1.819 3.67-2.133-7.442 1.513-.126-.618 9.271-1.885 3.669-2.132-7.761 1.578-.126-.618 9.59-1.95 3.67-2.133-8.082 1.643-.126-.618 9.91-2.014 3.67-2.133-8.402 1.708-.126-.618 10.231-2.08 3.692-2.145-8.745 1.777-.125-.618 10.572-2.149 3.67-2.133-9.065 1.843-.125-.618 10.893-2.214 3.669-2.132-9.384 1.907-.125-.618 11.211-2.279 3.67-2.133-9.704 1.973-.126-.618 11.532-2.344 3.67-2.133-10.024 2.037-.126-.617 11.853-2.41 3.666-2.13-10.333 2.1-.125-.618 12.16-2.472 3.693-2.146-10.676 2.17-.125-.617 12.504-2.542 3.669-2.133-10.995 2.235-.126-.618 12.824-2.606 3.67-2.133-11.316 2.3-.126-.618 13.144-2.672 3.67-2.132-11.635 2.365-.126-.618 13.463-2.737 3.67-2.133-11.956 2.43-.125-.617 13.783-2.802 2.628-1.527 5.596-1.111v-.193l.608-.351-17.438 3.544-.125-.618 19.281-3.919 3.726-2.153-17.829 3.624-.125-.617 19.672-4 13.173-7.61 6.317 3.649 4.065-.826-.14-.19.535-.394.323.438 5.637-1.146-1.409-1.912.536-.394 1.592 2.16 5.632-1.145zm-15.947 3.885l1.788 1.032 2.76-.561-.895-1.214-3.653.743zm3.342 1.93l-.73-.422 2.348-.478.372.505-1.99.395zm6.666-3.965l-5.636 1.146.894 1.214 5.637-1.146-.895-1.214zm-4.33 2.92l5.637-1.147.391.531-5.654 1.123-.374-.508z" fill="url(#paint2_radial)"/></g><path transform="matrix(.86603 -.5 0 1 224.542 13.818)" fill="url(#paint3_linear)" d="M0 0h27.636v174.75H0z"/><path d="M359.068 310.013l-171.662-99.1 132.644-76.577 171.661 99.1-132.643 76.577z" fill="url(#paint4_linear)"/><path d="M491.711 233.436v7.022l-132.644 76.577v-7.022l132.644-76.577z" fill="url(#paint5_linear)"/><path d="M187.406 210.913v7.021l171.662 99.101v-7.022l-171.662-99.1z" fill="url(#paint6_linear)"/><path d="M265.529 105.31l-45.945 9.12-.259 91.224 91.682 52.931.259-91.224-45.737-62.051z" fill="url(#paint7_linear)"/><path d="M311.266 167.361l-.259 91.224 101.967-59.262.259-91.215-101.967 59.253z" fill="url(#paint8_linear)"/><path d="M276.618 149.536c0 7.073-4.966 9.94-11.089 6.408-6.123-3.532-11.089-12.134-11.089-19.207s4.966-9.932 11.089-6.4c6.123 3.533 11.089 12.091 11.089 19.199z" fill="#FFC9E1"/><path d="M267.239 154.907c-6.123-3.532-11.089-12.09-11.089-19.198 0-3.031.924-5.285 2.444-6.598-2.53.864-4.154 3.541-4.154 7.583 0 7.073 4.966 15.666 11.089 19.207 3.455 2.02 6.616 1.943 8.636.19-1.891.665-4.3.354-6.926-1.184z" fill="url(#paint9_linear)"/><path d="M274.899 229.196l-18.75-10.821v-41.376l18.75 10.83v41.367zM250.52 204.85l-25.295-14.603V161.03l25.295 14.604v29.216zM305.601 236.692l-25.295-14.612v-29.208l25.295 14.604v29.216z" fill="#FFC9E1"/><path d="M266.635 233.972v4.275l-7.056 4.067v4.275l15.321-8.852v-8.541l-8.265 4.776z" fill="url(#paint10_linear)"/><path d="M247.886 223.151l18.749 10.821 8.265-4.776v-1.382l-17.532-10.147-1.217.708-8.265 4.776z" fill="url(#paint11_linear)"/><path d="M266.635 233.972v4.275l-18.749-10.83v-4.266l18.749 10.821z" fill="url(#paint12_linear)"/><path d="M240.83 231.493l18.749 10.821 7.056-4.067-18.749-10.83-7.056 4.076z" fill="url(#paint13_linear)"/><path d="M240.83 235.759v-4.266l18.749 10.821v4.275l-18.749-10.83z" fill="url(#paint14_linear)"/><path d="M227.047 162.084v26.98l-1.822 1.183V161.03l1.822 1.054z" fill="url(#paint15_linear)"/><path d="M225.225 190.247l1.822-1.183 23.473 13.55v2.236l-25.295-14.603z" fill="url(#paint16_linear)"/><path d="M280.306 192.872l1.822 1.054v26.971l-1.822 1.183v-29.208z" fill="url(#paint17_linear)"/><path d="M305.601 236.692l-25.295-14.612 1.822-1.183 23.473 13.558v2.237z" fill="url(#paint18_linear)"/><path d="M257.367 217.667l-1.218.708v-41.376l1.218.699v39.969z" fill="#1F066C"/><path d="M280.305 187.958l-20.52 11.849 20.52-20.684v8.835z" fill="url(#paint19_linear)"/><path d="M250.519 161.894l29.786 17.229-20.52 20.684-29.777-17.229 20.511-20.684z" fill="url(#paint20_linear)"/><path d="M309.185 173.967l108.134-62.845-48.501-65.808-108.142 62.846 48.509 65.807z" fill="url(#paint21_linear)"/><g style="mix-blend-mode:overlay"><path d="M260.459 101.216l60.065 81.5M265.545 98.21l60.073 81.492M270.632 95.197l60.073 81.491M275.728 92.183l60.064 81.499M280.814 89.177l60.065 81.491M285.901 86.163l60.065 81.5M290.988 83.158l60.065 81.491M296.075 80.144l60.074 81.491M301.17 77.13l60.065 81.5M306.257 74.124l60.065 81.492M311.344 71.11l60.064 81.5M316.43 68.105l60.064 81.491M321.517 65.091l60.073 81.491M326.611 62.077l60.065 81.5M331.699 59.072l60.065 81.491M336.786 56.057l60.065 81.5M341.872 53.052l60.065 81.491M346.959 50.038l60.073 81.5M352.046 47.033l60.073 81.491M357.142 44.019l60.064 81.491M362.228 41.005l60.064 81.499M367.314 38l60.065 81.49" stroke="#3A55CA" stroke-width=".665" stroke-miterlimit="10"/></g><path d="M368.818 45.314l-48.725 9.673-108.134 62.845 48.717-9.672 108.142-62.846z" fill="url(#paint22_linear)"/><g style="mix-blend-mode:overlay"><path d="M207.736 117.737l56.982-11.581M212.797 114.68l56.973-11.581M217.849 111.623l56.973-11.581M222.901 108.557l56.973-11.573M227.953 105.5l56.973-11.581M233.005 102.443l56.973-11.582M238.059 99.385l56.973-11.58M243.11 96.328l56.973-11.581M248.162 93.27l56.973-11.58M253.215 90.205l56.973-11.581M258.267 87.148l56.973-11.581M263.319 84.09l56.982-11.58M268.371 81.033l56.982-11.58M273.423 77.976l56.981-11.58M278.483 74.919l56.973-11.581M283.535 71.853l56.973-11.581M288.588 68.796l56.973-11.581M293.64 65.739l56.973-11.581M298.692 62.681l56.973-11.58M303.745 59.624l56.973-11.58M308.797 56.567l56.973-11.581M313.85 53.501l56.973-11.58" stroke="#3A55CA" stroke-width=".63" stroke-miterlimit="10"/></g><path d="M370.934 109.464l-20.943 12.09V67.708l20.943-12.09v53.846z" fill="url(#paint23_linear)"/><path d="M349.991 67.708l-24.303-14.025 20.943-12.1 24.302 14.034-20.942 12.09z" fill="url(#paint24_linear)"/><path d="M333.237 53.683l13.395-7.739 16.754 9.673-13.394 7.738-16.755-9.672z" fill="url(#paint25_linear)"/><path d="M325.688 53.683v35.123l24.303 32.748V67.708l-24.303-14.025z" fill="url(#paint26_linear)"/><path d="M346.632 45.944v15.468l-13.395-7.73 13.395-7.738z" fill="url(#paint27_linear)"/><path d="M316.397 176.481l-.216 78.839 5.155 2.971 4.863-2.807 43.302 24.925v5.604l7.53 4.336.164-59.141-60.798-54.727z" fill="url(#paint28_linear)"/><path d="M474.024 175.021l-60.79-54.719-96.838 56.179 60.799 54.727 96.829-56.187z" fill="url(#paint29_linear)"/><path d="M377.195 231.208l-.164 59.141 96.829-56.187.164-59.141-96.829 56.187z" fill="url(#paint30_linear)"/><path d="M440.3 231.709l19.906-11.486v-22.981L440.3 208.737v22.972zM396.98 256.754l19.898-11.486v-22.981l-19.898 11.486v22.981z" fill="#4FF"/><path d="M321.337 258.291l4.862-2.807v-33.931l-4.75-2.746-.112 39.484z" fill="url(#paint31_linear)"/><path d="M326.198 221.553v33.931l43.302 24.925v-33.941l-43.302-24.915z" fill="#FFC9E1"/><path d="M416.88 245.268l-3.325-1.917v-19.147l3.325-1.917v22.981z" fill="url(#paint32_linear)"/><path d="M396.98 256.754v-3.834l16.573-9.569 3.325 1.917-19.898 11.486z" fill="url(#paint33_linear)"/><path d="M460.207 220.223l-3.325-1.917v-19.147l3.325-1.917v22.981z" fill="url(#paint34_linear)"/><path d="M440.3 231.709v-3.834l16.581-9.569 3.325 1.917-19.906 11.486z" fill="url(#paint35_linear)"/><path d="M232.616 218.945l-9.75-5.631 9.75-5.631 9.751 5.631-9.751 5.631z" fill="url(#paint36_linear)"/><path d="M225.379 213.314l7.237-4.18 7.237 4.18-7.237 4.18-7.237-4.18z" fill="#3A55CA"/><path d="M242.366 213.314v5.631l-9.75 5.631v-5.631l9.75-5.631z" fill="url(#paint37_linear)"/><path d="M222.866 213.314v5.631l9.75 5.631v-5.631l-9.75-5.631z" fill="url(#paint38_linear)"/><path d="M240.182 209.212v-.216-.19-.475l-.069-1.002c0-.233-.052-.484-.078-.743v-.103c-.06-.493-.129-1.002-.181-1.425 0-.268-.087-.527-.13-.769-.043-.242 0-.302-.069-.458v-.12a1.69 1.69 0 000-.225c-.052-.302-.104-.57-.147-.795v-.345l-.052-.268v-.069c-.06-.276-.12-.57-.172-.863v-.19l-.285-1.235v-.458a39.695 39.695 0 01-.225-.864v-.276l-.742-1.088v-.052a51.125 51.125 0 00-.45-1.425v-.069a24.936 24.936 0 00-.431-1.209v-.061a23.132 23.132 0 00-.475-1.166.266.266 0 000-.069 37.72 37.72 0 00-.449-.967l-.13-.242a.33.33 0 000-.077l-.104-.199a.67.67 0 01-.06-.104l-.104-.19-.086-.147v-.069l-.069-.103a7.066 7.066 0 00-.458-.691l-.138-.173-.112-.138-.052-.06-.112-.139-.121-.112c-.069-.078-.147-.147-.216-.216l-.173-.138-.138-.104a3.47 3.47 0 00-.294-.216.2.2 0 00-.069 0l-.112-.051H232.098l-.095.043-.086.052-.095.06-.095.061-.164.129-.138.121-.052.043-.147.147-.086.095-.052.06-.06.07v.043l-.19.242-.07.077-.051.069c-.182.259-.389.596-.553.864l-.458.864.251-.467-.294.536c-.164.328-.354.76-.501 1.088l-.483 1.174c-.147.38-.329.864-.467 1.287l-.423 1.313v.052c-.121.414-.268.941-.389 1.347l-.345 1.338c0-.129.06-.259.095-.388v.181c0 .087-.043.173-.069.259-.104.415-.225.942-.32 1.348l-.293 1.373v.095c-.044.242-.087.44-.121.622v.138l-.069.362v.199l-.199 1.209c0 .233-.069.466-.095.708l-.052.372v.19c.004.04.004.08 0 .121v.31-.241l-.078.751V209.868l.061.622v.086c0 .19.069.423.104.613v.044l.138.578c.023.091.052.181.086.268 0 .121.086.242.121.345l.225.501c.077.156.19.354.285.51l.233.328a.44.44 0 00.077.095v.06l.147.165.069.086v.043h.044l.112.104.181.172.233.19.139.095.155.121.112.078.251.156.06.043.51.259.121.052.216.095.224.077h.19l.285.087h.086l.234.06h.138l.216.052H235.207l.277-.078c.25-.086.492-.172.708-.267l.294-.139h.095l.112-.06.129-.069h.052l.277-.173.414-.302.121-.095.216-.19.052-.052c.138-.138.302-.311.423-.449l.285-.371.311-.493.233-.457c.069-.164.147-.372.216-.544l.138-.458v.095c.023-.059.04-.12.052-.182v-1.027.155-.19V210.274 209.6v.13-.475l.57-.043zm-9.362-19.76l.052-.06-.052.06z" fill="url(#paint39_radial)"/><path d="M286.852 250.268l-9.75-5.631 9.75-5.63 9.75 5.63-9.75 5.631z" fill="url(#paint40_linear)"/><path d="M279.615 244.637l7.237-4.179 7.237 4.179-7.237 4.18-7.237-4.18z" fill="#3A55CA"/><path d="M296.603 244.637v5.631l-9.75 5.631v-5.631l9.75-5.631z" fill="url(#paint41_linear)"/><path d="M277.102 244.637v5.631l9.75 5.631v-5.631l-9.75-5.631z" fill="#8137C2"/><path d="M294.451 240.535v-.207a1.652 1.652 0 010-.199v-.475l-.069-.993c0-.224-.052-.475-.077-.743v-.103a84.65 84.65 0 00-.19-1.425c0-.276-.078-.536-.121-.777-.044-.242-.043-.294-.078-.449v-.121-.234c-.052-.293-.104-.561-.147-.794a1.249 1.249 0 000-.173V233.678l-.052-.268v-.069c-.06-.285-.121-.57-.172-.863 0-.069 0-.13-.044-.199l-.285-1.235V230.586c-.069-.285-.146-.578-.215-.863v-.328l-.285-.994v-.051c-.139-.458-.285-.942-.45-1.425v-.069a41.833 41.833 0 00-.431-1.21v-.051a19.813 19.813 0 00-.475-1.166v-.069a21.186 21.186 0 00-.458-.976l-.121-.242-.648-.199-.103-.207-.052-.104-.104-.19a1.224 1.224 0 01-.086-.138l-.043-.077-.061-.095a8.597 8.597 0 00-.466-.691 1.102 1.102 0 00-.13-.173l-.112-.147-.052-.06-.121-.13-.112-.121-.224-.216-.165-.129-.138-.113-.293-.207h-.069l-.113-.06H286.316l-.112.043h-.052l-.095.052-.086.043-.095.06-.095.069-.164.13-.139.121-.051.043-.147.147-.087.086-.06.069a.25.25 0 00-.061.069l-.198.242-.069.087-.052.069c-.181.259-.389.587-.553.863l-.457.864c.069-.147.155-.302.25-.475l-.294.544c-.164.328-.354.76-.509 1.08l-.475 1.174c-.147.389-.328.864-.467 1.296l-.423 1.304v.06c-.121.406-.267.941-.388 1.339l-.346 1.338c0-.121.061-.25.095-.38a1.249 1.249 0 000 .173c0 .095-.052.181-.069.259l-.311 1.347-.293 1.373v.095c-.052.234-.087.441-.121.622v.13l-.069.371v.199l-.199 1.209c0 .224-.069.466-.095.699-.026.234-.043.251-.052.38v.622-.242l-.078.752v.432c.004.074.004.149 0 .224v2.047l.061.622v.207c0 .199.069.432.103.622v.043l.139.57c0 .086.06.181.095.268.033.117.074.232.121.345l.215.51.294.509.233.328.078.095v.052l.138.164a.807.807 0 01.078.087v.043l.121.112.181.173c.074.067.152.131.233.19l.139.103.155.113.112.077.242.147h.069l.51.259.121.052.216.095.224.086.112.044h.069l.294.086h.086l.234.06h.354l.259.052H285.919h-.104H289.106l.164-.043h.207l.276-.086h.061c.241-.076.477-.166.708-.268l.294-.129.086-.044.121-.069.129-.069h.095l.277-.164h.043l.414-.294.121-.103.216-.19.052-.043c.138-.13.294-.311.423-.441l.285-.371c.104-.147.225-.346.311-.492l.233-.458c.069-.164.147-.38.216-.544l.138-.458v.086c.022-.059.039-.119.052-.181v-.086-.752.061l.043-.285v.155a.42.42 0 000-.112v-.078a.695.695 0 000-.129v-.095-.57-.104.13-.484l.38.017zm-9.361-19.759l.052-.052-.052.052z" fill="url(#paint42_radial)"/><g filter="url(#filter2_dddddd)"><path d="M364.835 359.573c-1.249-2.35-3.484-4.569-6.707-6.428a35.08 35.08 0 00-12.464-4.079l-1.559-.856h-9.646l-1.499.823a34.94 34.94 0 00-12.65 4.112c-3.217 1.87-5.453 4.1-6.652 6.466l-1.118.611v6.134c.082 3.92 2.726 7.835 7.895 10.829 10.475 6.046 27.41 6.046 37.813 0 5.137-2.983 7.727-6.887 7.77-10.791v-6.172l-1.183-.649z" fill="#FF9D08"/><path d="M358.128 349.121c-10.479-6.047-27.409-6.047-37.818 0-10.409 6.046-10.36 15.855.125 21.908 10.485 6.052 27.41 6.047 37.813 0 10.404-6.047 10.36-15.862-.12-21.908z" fill="#FFDC4C"/><path d="M339.192 346.394c-6.826 0-13.211 1.522-17.993 4.291-4.417 2.579-6.854 5.895-6.848 9.351.005 3.457 2.486 6.827 6.99 9.422 4.792 2.77 11.194 4.297 18.026 4.297 6.826 0 13.206-1.527 17.993-4.291 4.433-2.579 6.876-5.9 6.87-9.351-.005-3.452-2.503-6.805-6.979-9.422-4.826-2.77-11.227-4.297-18.059-4.297z" fill="#FF9D08"/><path d="M340.202 347.567c-6.827 0-13.212 1.526-17.994 4.291-4.416 2.579-6.859 5.899-6.853 9.351.005 3.451 2.486 6.821 7.001 9.422 4.792 2.77 11.199 4.296 18.031 4.296 6.826 0 13.211-1.526 17.993-4.291 4.406-2.579 6.843-5.878 6.838-9.351-.006-3.473-2.487-6.826-6.99-9.422-4.793-2.77-11.2-4.296-18.026-4.296z" fill="#FFDC4C"/><path d="M332.08 356.81l17.647-2.038-3.53 10.188-17.646 2.038 3.529-10.188z" stroke="#FF9D08" stroke-width="1.499" stroke-linecap="round" stroke-linejoin="round"/><path d="M332.08 356.81l10.588 2.037 3.529 6.113-9.411-2.716-4.706-5.434z" stroke="#FF9D08" stroke-width="1.499" stroke-linecap="round" stroke-linejoin="round"/></g><g filter="url(#filter3_f)"><path fill-rule="evenodd" clip-rule="evenodd" d="M339.141 344.585l-.002-.001-.003.001c-6.825.009-13.636 1.52-18.827 4.536-5.147 2.99-7.737 6.9-7.772 10.821l-1.633.943 1.635.944v4.527c.082 3.92 2.727 7.835 7.896 10.829 10.474 6.046 27.409 6.046 37.813 0 5.136-2.983 7.726-6.887 7.77-10.791v-4.726l1.355-.783-1.354-.781c-.008-3.975-2.638-7.953-7.891-10.983-5.253-3.031-12.126-4.543-18.987-4.536z" fill="#FFDC4C" fill-opacity=".4"/></g><g filter="url(#filter4_f)"><path fill-rule="evenodd" clip-rule="evenodd" d="M176.782 310.904l-.003-.001-.002.001c-6.825.009-13.637 1.52-18.827 4.536-5.147 2.99-7.737 6.9-7.772 10.821l-1.633.943 1.634.944v4.527c.082 3.92 2.726 7.835 7.895 10.829 10.475 6.046 27.41 6.046 37.814 0 5.136-2.983 7.726-6.887 7.769-10.791v-4.726l1.357-.783-1.354-.781c-.008-3.975-2.639-7.953-7.891-10.983-5.253-3.031-12.127-4.543-18.987-4.536z" fill="#FFDC4C" fill-opacity=".4"/></g><g filter="url(#filter5_f)"><path fill-rule="evenodd" clip-rule="evenodd" d="M519.637 310.904l-.002-.001-.003.001c-6.825.009-13.636 1.52-18.826 4.536-5.148 2.99-7.738 6.9-7.773 10.821l-1.633.943 1.636.945v4.526c.082 3.92 2.727 7.835 7.896 10.829 10.474 6.046 27.409 6.046 37.813 0 5.136-2.983 7.726-6.887 7.77-10.791v-4.727l1.354-.782-1.354-.781c-.007-3.975-2.638-7.953-7.891-10.983-5.253-3.031-12.126-4.543-18.987-4.536z" fill="#FFDC4C" fill-opacity=".4"/></g><g filter="url(#filter6_f)"><path fill-rule="evenodd" clip-rule="evenodd" d="M593.045 185.68l-.002-.002-.003.002c-6.824.008-13.636 1.519-18.826 4.535-5.148 2.99-7.738 6.9-7.773 10.822l-1.632.942 1.635.945v4.526c.082 3.92 2.726 7.835 7.895 10.829 10.475 6.046 27.41 6.046 37.813 0 5.137-2.983 7.727-6.887 7.77-10.791v-4.726l1.355-.783-1.353-.781c-.008-3.975-2.639-7.953-7.892-10.983-5.253-3.031-12.126-4.543-18.987-4.535z" fill="#FFDC4C" fill-opacity=".4"/></g><g filter="url(#filter7_f)"><path fill-rule="evenodd" clip-rule="evenodd" d="M521.363 310.904l-.003-.001-.002.001c-6.825.009-13.636 1.52-18.826 4.535-5.147 2.991-7.737 6.901-7.772 10.822l-1.634.943 1.636.944v4.527c.081 3.92 2.726 7.835 7.895 10.828 10.474 6.047 27.41 6.047 37.813 0 5.136-2.982 7.726-6.886 7.77-10.79v-4.727l1.355-.782-1.353-.781c-.007-3.975-2.638-7.953-7.891-10.984-5.253-3.031-12.127-4.542-18.988-4.535z" fill="#FFDC4C" fill-opacity=".4"/></g><g filter="url(#filter8_f)"><path fill-rule="evenodd" clip-rule="evenodd" d="M176.782 310.904l-.003-.001-.002.001c-6.825.009-13.637 1.52-18.827 4.536-5.147 2.99-7.737 6.9-7.772 10.821l-1.633.943 1.634.944v4.527c.082 3.92 2.726 7.835 7.895 10.829 10.475 6.046 27.41 6.046 37.814 0 5.136-2.983 7.726-6.887 7.769-10.791v-4.726l1.357-.783-1.354-.781c-.008-3.975-2.639-7.953-7.891-10.983-5.253-3.031-12.127-4.543-18.987-4.536z" fill="#FFDC4C" fill-opacity=".4"/></g><g filter="url(#filter9_dddddd)"><path d="M547.057 327.619c-1.249-2.35-3.484-4.569-6.707-6.428a35.08 35.08 0 00-12.464-4.079l-1.56-.856h-9.645l-1.5.823a34.953 34.953 0 00-12.649 4.112c-3.217 1.87-5.453 4.1-6.653 6.466l-1.117.611v6.134c.082 3.92 2.726 7.835 7.895 10.829 10.474 6.047 27.41 6.047 37.813 0 5.136-2.983 7.726-6.887 7.77-10.791v-6.172l-1.183-.649z" fill="#FF9D08"/><path d="M540.351 317.167c-10.48-6.047-27.41-6.047-37.819 0-10.408 6.047-10.359 15.856.126 21.908 10.485 6.052 27.41 6.047 37.813 0 10.403-6.047 10.36-15.861-.12-21.908z" fill="#FFDC4C"/><path d="M521.414 314.44c-6.827 0-13.212 1.522-17.993 4.292-4.417 2.579-6.854 5.894-6.849 9.351.006 3.457 2.487 6.826 6.99 9.422 4.793 2.769 11.194 4.296 18.026 4.296 6.827 0 13.206-1.527 17.994-4.291 4.432-2.579 6.875-5.9 6.87-9.351-.006-3.451-2.503-6.805-6.979-9.422-4.826-2.77-11.227-4.297-18.059-4.297z" fill="#FF9D08"/><path d="M522.422 315.613c-6.826 0-13.211 1.526-17.993 4.291-4.417 2.579-6.859 5.899-6.854 9.351.006 3.451 2.487 6.821 7.001 9.422 4.793 2.77 11.2 4.296 18.032 4.296 6.826 0 13.211-1.526 17.993-4.291 4.406-2.579 6.843-5.877 6.837-9.351-.005-3.473-2.486-6.826-6.99-9.422-4.793-2.77-11.199-4.296-18.026-4.296z" fill="#FFDC4C"/><path d="M514.303 324.856l17.646-2.038-3.529 10.189-17.647 2.037 3.53-10.188z" stroke="#FF9D08" stroke-width="1.499" stroke-linecap="round" stroke-linejoin="round"/><path d="M514.302 324.856l10.588 2.038 3.529 6.113-9.412-2.717-4.705-5.434z" stroke="#FF9D08" stroke-width="1.499" stroke-linecap="round" stroke-linejoin="round"/></g><g filter="url(#filter10_dddddd)"><path d="M618.739 200.667c-1.248-2.35-3.484-4.569-6.706-6.428a35.084 35.084 0 00-12.465-4.079l-1.559-.856h-9.646l-1.499.823a34.945 34.945 0 00-12.65 4.112c-3.217 1.87-5.452 4.1-6.652 6.466l-1.118.611v6.134c.082 3.92 2.727 7.835 7.896 10.829 10.474 6.046 27.409 6.046 37.813 0 5.136-2.983 7.726-6.887 7.769-10.791v-6.172l-1.183-.649z" fill="#FF9D08"/><path d="M612.033 190.215c-10.48-6.047-27.41-6.047-37.819 0-10.409 6.046-10.36 15.855.125 21.908 10.486 6.052 27.41 6.047 37.814 0 10.403-6.047 10.359-15.862-.12-21.908z" fill="#FFDC4C"/><path d="M593.096 187.488c-6.826 0-13.211 1.522-17.993 4.291-4.416 2.58-6.854 5.895-6.848 9.352.005 3.456 2.486 6.826 6.99 9.421 4.793 2.77 11.194 4.297 18.026 4.297 6.826 0 13.206-1.527 17.993-4.291 4.433-2.579 6.876-5.9 6.87-9.351-.005-3.452-2.502-6.805-6.979-9.422-4.825-2.77-11.227-4.297-18.059-4.297z" fill="#FF9D08"/><path d="M594.105 188.661c-6.827 0-13.212 1.526-17.993 4.291-4.417 2.579-6.86 5.899-6.854 9.351.005 3.451 2.486 6.821 7.001 9.422 4.793 2.77 11.199 4.296 18.031 4.296 6.827 0 13.212-1.526 17.994-4.291 4.405-2.579 6.842-5.878 6.837-9.351-.005-3.473-2.486-6.826-6.99-9.422-4.793-2.77-11.2-4.296-18.026-4.296z" fill="#FFDC4C"/><path d="M585.984 197.904l17.647-2.038-3.529 10.189-17.647 2.037 3.529-10.188z" stroke="#FF9D08" stroke-width="1.499" stroke-linecap="round" stroke-linejoin="round"/><path d="M585.984 197.904l10.588 2.038 3.53 6.113-9.412-2.717-4.706-5.434z" stroke="#FF9D08" stroke-width="1.499" stroke-linecap="round" stroke-linejoin="round"/></g><g filter="url(#filter11_dddddd)"><path d="M132.522 200.667c-1.249-2.35-3.485-4.569-6.707-6.428a35.086 35.086 0 00-12.464-4.079l-1.56-.856h-9.645l-1.5.823a34.942 34.942 0 00-12.65 4.112c-3.217 1.87-5.452 4.1-6.652 6.466l-1.117.611v6.134c.081 3.92 2.726 7.835 7.895 10.829 10.474 6.046 27.41 6.046 37.813 0 5.136-2.983 7.726-6.887 7.77-10.791v-6.172l-1.183-.649z" fill="#FF9D08"/><path d="M125.815 190.215c-10.48-6.047-27.41-6.047-37.819 0-10.408 6.046-10.36 15.855.126 21.908 10.485 6.052 27.409 6.047 37.813 0 10.403-6.047 10.36-15.862-.12-21.908z" fill="#FFDC4C"/><path d="M106.879 187.488c-6.827 0-13.212 1.522-17.994 4.291-4.416 2.58-6.853 5.895-6.848 9.352.006 3.456 2.486 6.826 6.99 9.421 4.793 2.77 11.194 4.297 18.026 4.297 6.827 0 13.206-1.527 17.993-4.291 4.433-2.579 6.876-5.9 6.871-9.351-.006-3.452-2.503-6.805-6.98-9.422-4.825-2.77-11.226-4.297-18.058-4.297z" fill="#FF9D08"/><path d="M107.887 188.661c-6.826 0-13.211 1.526-17.993 4.291-4.417 2.579-6.86 5.899-6.854 9.351.005 3.451 2.486 6.821 7.001 9.422 4.793 2.77 11.199 4.296 18.031 4.296 6.827 0 13.212-1.526 17.994-4.291 4.405-2.579 6.843-5.878 6.837-9.351-.005-3.473-2.486-6.826-6.99-9.422-4.793-2.77-11.199-4.296-18.026-4.296z" fill="#FFDC4C"/><path d="M99.767 197.904l17.646-2.038-3.529 10.189-17.647 2.037 3.53-10.188z" stroke="#FF9D08" stroke-width="1.499" stroke-linecap="round" stroke-linejoin="round"/><path d="M99.766 197.904l10.588 2.038 3.529 6.113-9.412-2.717-4.705-5.434z" stroke="#FF9D08" stroke-width="1.499" stroke-linecap="round" stroke-linejoin="round"/></g><g filter="url(#filter12_dddddd)"><path d="M202.475 325.892c-1.249-2.35-3.485-4.569-6.707-6.429a35.097 35.097 0 00-12.464-4.078l-1.56-.856h-9.645l-1.5.823a34.952 34.952 0 00-12.649 4.111c-3.217 1.871-5.453 4.101-6.653 6.467l-1.117.611v6.134c.081 3.92 2.726 7.835 7.895 10.829 10.474 6.046 27.41 6.046 37.813 0 5.136-2.983 7.726-6.887 7.77-10.791v-6.172l-1.183-.649z" fill="#FF9D08"/><path d="M195.769 315.44c-10.48-6.047-27.41-6.047-37.819 0-10.408 6.046-10.359 15.855.126 21.908 10.485 6.052 27.41 6.046 37.813 0 10.403-6.047 10.36-15.862-.12-21.908z" fill="#FFDC4C"/><path d="M176.833 312.713c-6.827 0-13.212 1.522-17.993 4.291-4.417 2.579-6.854 5.895-6.849 9.351.006 3.457 2.487 6.827 6.99 9.422 4.793 2.77 11.194 4.297 18.026 4.297 6.827 0 13.206-1.527 17.994-4.291 4.432-2.579 6.875-5.9 6.87-9.351-.006-3.452-2.503-6.805-6.98-9.422-4.825-2.77-11.226-4.297-18.058-4.297z" fill="#FF9D08"/><path d="M177.84 313.886c-6.826 0-13.211 1.526-17.993 4.291-4.417 2.579-6.859 5.899-6.854 9.351.006 3.451 2.487 6.821 7.001 9.422 4.793 2.77 11.2 4.296 18.032 4.296 6.826 0 13.211-1.526 17.993-4.291 4.405-2.579 6.843-5.878 6.837-9.351-.005-3.473-2.486-6.826-6.99-9.422-4.793-2.77-11.199-4.296-18.026-4.296z" fill="#FFDC4C"/><path d="M169.721 323.129l17.646-2.038-3.529 10.188-17.647 2.038 3.53-10.188z" stroke="#FF9D08" stroke-width="1.499" stroke-linecap="round" stroke-linejoin="round"/><path d="M169.721 323.129l10.588 2.037 3.529 6.113-9.412-2.717-4.705-5.433z" stroke="#FF9D08" stroke-width="1.499" stroke-linecap="round" stroke-linejoin="round"/></g><g filter="url(#filter13_f)"><path fill-rule="evenodd" clip-rule="evenodd" d="M106.828 185.68l-.003-.002-.002.002c-6.825.008-13.637 1.519-18.827 4.535-5.147 2.99-7.737 6.9-7.772 10.822l-1.633.942 1.635.944v4.527c.082 3.92 2.726 7.835 7.895 10.829 10.474 6.046 27.41 6.046 37.813 0 5.136-2.983 7.726-6.887 7.77-10.791v-4.726l1.356-.783-1.354-.781c-.008-3.975-2.639-7.953-7.891-10.983-5.253-3.031-12.127-4.543-18.987-4.535z" fill="#FFDC4C" fill-opacity=".4"/></g><path transform="matrix(.86603 -.5 0 1 467.218 166.679)" fill="url(#paint43_linear)" d="M0 0h27.636v88.089H0z"/><path transform="matrix(.86603 -.5 0 1 406.765 114.563)" fill="url(#paint44_linear)" d="M0 0h27.636v174.75H0z"/><g filter="url(#filter14_f)"><path fill="#FFC9E1" d="M281.54 193.451l23.933 13.818v27.636l-23.933-13.818z"/></g><g filter="url(#filter15_f)"><path d="M225.406 161.497l16.84 9.068-12.09 12.09 19.863 11.659v7.773l-25.477-12.091.864-28.499z" fill="#FFC9E1"/></g><g filter="url(#filter16_f)"><path fill="#FFB0F6" d="M325.584 221.087l44.044 25.429v34.12l-44.044-25.429z"/></g><g filter="url(#filter17_f)"><path fill="#4FF" d="M440.445 208.106l16.409-9.473v18.946l-16.409 9.474z"/></g><g filter="url(#filter18_f)"><path fill="#4FF" d="M397.265 234.878l16.409-9.473v18.946l-16.409 9.474z"/></g><path transform="matrix(.86603 .5 0 1 187.405 2.066)" fill="url(#paint45_linear)" d="M0 0h38.863v215.566H0z"/><path transform="matrix(.86603 .5 0 1 310.039 73.408)" fill="url(#paint46_linear)" d="M0 0h38.863v215.566H0z"/><path transform="matrix(.86603 .5 0 1 252.177 38.863)" fill="url(#paint47_linear)" d="M0 0h24.93v215.566H0z"/><defs><linearGradient id="paint0_linear" x1="21.922" y1="0" x2="21.922" y2="158.958" gradientUnits="userSpaceOnUse"><stop offset=".516" stop-color="#F1B7FF" stop-opacity="0"/><stop offset=".677" stop-color="#DE99EF" stop-opacity=".36"/><stop offset=".833" stop-color="#CB7DE0" stop-opacity=".739"/><stop offset="1" stop-color="#BE69D5"/></linearGradient><linearGradient id="paint1_linear" x1="21.922" y1="0" x2="21.922" y2="158.958" gradientUnits="userSpaceOnUse"><stop offset=".188" stop-color="#F1B7FF" stop-opacity="0"/><stop offset=".516" stop-color="#DE99EF" stop-opacity=".36"/><stop offset=".797" stop-color="#CB7DE0" stop-opacity=".739"/><stop offset="1" stop-color="#BE69D5"/></linearGradient><linearGradient id="paint3_linear" x1="13.818" y1="0" x2="13.818" y2="174.75" gradientUnits="userSpaceOnUse"><stop offset=".229" stop-color="#4FF" stop-opacity="0"/><stop offset="1" stop-color="#4FF" stop-opacity=".46"/></linearGradient><linearGradient id="paint4_linear" x1="187.406" y1="222.175" x2="491.711" y2="222.175" gradientUnits="userSpaceOnUse"><stop stop-color="#001886"/><stop offset="1" stop-color="#1F066C"/></linearGradient><linearGradient id="paint5_linear" x1="491.693" y1="235.716" x2="358.368" y2="315.186" gradientUnits="userSpaceOnUse"><stop stop-color="#0059CF"/><stop offset="1" stop-color="#001886"/></linearGradient><linearGradient id="paint6_linear" x1="361.901" y1="315.584" x2="187.734" y2="214.203" gradientUnits="userSpaceOnUse"><stop stop-color="#C66FD7"/><stop offset="1" stop-color="#8137C2"/></linearGradient><linearGradient id="paint7_linear" x1="11678.8" y1="15411.4" x2="1044.9" y2="34321.7" gradientUnits="userSpaceOnUse"><stop stop-color="#C66FD7"/><stop offset="1" stop-color="#8137C2"/></linearGradient><linearGradient id="paint8_linear" x1="23183.2" y1="12695.5" x2="16861.4" y2="44695.9" gradientUnits="userSpaceOnUse"><stop stop-color="#0059CF"/><stop offset="1" stop-color="#001886"/></linearGradient><linearGradient id="paint9_linear" x1="264.303" y1="154.933" x2="264.303" y2="128.766" gradientUnits="userSpaceOnUse"><stop stop-color="#FE53B1"/><stop offset="1" stop-color="#6C0C72"/></linearGradient><linearGradient id="paint10_linear" x1="1990.04" y1="4128.42" x2="1597.03" y2="4408.27" gradientUnits="userSpaceOnUse"><stop stop-color="#0059CF"/><stop offset="1" stop-color="#001886"/></linearGradient><linearGradient id="paint11_linear" x1="3316.68" y1="3855.34" x2="2269.38" y2="3310.5" gradientUnits="userSpaceOnUse"><stop stop-color="#001886"/><stop offset="1" stop-color="#1F066C"/></linearGradient><linearGradient id="paint12_linear" x1="1749.32" y1="3595.01" x2="2156.36" y2="3595.01" gradientUnits="userSpaceOnUse"><stop stop-color="#C66FD7"/><stop offset="1" stop-color="#8137C2"/></linearGradient><linearGradient id="paint13_linear" x1="2873.45" y1="3711.63" x2="2198.45" y2="3273.13" gradientUnits="userSpaceOnUse"><stop stop-color="#001886"/><stop offset="1" stop-color="#1F066C"/></linearGradient><linearGradient id="paint14_linear" x1="1589.08" y1="3749.18" x2="1996.13" y2="3749.18" gradientUnits="userSpaceOnUse"><stop stop-color="#C66FD7"/><stop offset="1" stop-color="#8137C2"/></linearGradient><linearGradient id="paint15_linear" x1="325.247" y1="5299.29" x2="325.247" y2="4463.41" gradientUnits="userSpaceOnUse"><stop stop-color="#FE53B1"/><stop offset="1" stop-color="#6C0C72"/></linearGradient><linearGradient id="paint16_linear" x1="225.225" y1="196.957" x2="250.52" y2="196.957" gradientUnits="userSpaceOnUse"><stop stop-color="#FFC9E1"/><stop offset="1" stop-color="#C66FD7"/></linearGradient><linearGradient id="paint17_linear" x1="496.569" y1="6473.97" x2="496.569" y2="5468.64" gradientUnits="userSpaceOnUse"><stop stop-color="#FE53B1"/><stop offset="1" stop-color="#6C0C72"/></linearGradient><linearGradient id="paint18_linear" x1="3255.55" y1="3714.25" x2="3996.45" y2="3714.25" gradientUnits="userSpaceOnUse"><stop stop-color="#FFC9E1"/><stop offset="1" stop-color="#C66FD7"/></linearGradient><linearGradient id="paint19_linear" x1="2728.7" y1="3624.61" x2="2190.61" y2="4054.78" gradientUnits="userSpaceOnUse"><stop stop-color="#0059CF"/><stop offset="1" stop-color="#001886"/></linearGradient><linearGradient id="paint20_linear" x1="3813.18" y1="6762.15" x2="5518.79" y2="5653.46" gradientUnits="userSpaceOnUse"><stop stop-color="#001886"/><stop offset="1" stop-color="#1F066C"/></linearGradient><linearGradient id="paint21_linear" x1="35986.3" y1="2124.35" x2="24385.1" y2="24406.8" gradientUnits="userSpaceOnUse"><stop stop-color="#001886"/><stop offset="1" stop-color="#1F066C"/></linearGradient><linearGradient id="paint22_linear" x1="28231.7" y1="1378.92" x2="18973" y2="14487.1" gradientUnits="userSpaceOnUse"><stop stop-color="#001886"/><stop offset="1" stop-color="#1F066C"/></linearGradient><linearGradient id="paint23_linear" x1="4998.45" y1="1507.56" x2="2189.56" y2="4355.02" gradientUnits="userSpaceOnUse"><stop stop-color="#0059CF"/><stop offset="1" stop-color="#001886"/></linearGradient><linearGradient id="paint24_linear" x1="8025.03" y1="551.272" x2="10395.4" y2="551.272" gradientUnits="userSpaceOnUse"><stop stop-color="#001886"/><stop offset="1" stop-color="#1F066C"/></linearGradient><linearGradient id="paint25_linear" x1="6253.29" y1="346.625" x2="6253.29" y2="524.735" gradientUnits="userSpaceOnUse"><stop stop-color="#C66FD7"/><stop offset="1" stop-color="#8137C2"/></linearGradient><linearGradient id="paint26_linear" x1="5152.84" y1="2057.26" x2="2577.16" y2="3862.02" gradientUnits="userSpaceOnUse"><stop stop-color="#C66FD7"/><stop offset="1" stop-color="#8137C2"/></linearGradient><linearGradient id="paint27_linear" x1="2833.5" y1="271.15" x2="2833.5" y2="457.378" gradientUnits="userSpaceOnUse"><stop stop-color="#0059CF"/><stop offset="1" stop-color="#001886"/></linearGradient><linearGradient id="paint28_linear" x1="13837.6" y1="21403.8" x2="6176.87" y2="27476.7" gradientUnits="userSpaceOnUse"><stop stop-color="#C66FD7"/><stop offset="1" stop-color="#8137C2"/></linearGradient><linearGradient id="paint29_linear" x1="42377.8" y1="11691.1" x2="39135.8" y2="27479.9" gradientUnits="userSpaceOnUse"><stop stop-color="#001886"/><stop offset="1" stop-color="#1F066C"/></linearGradient><linearGradient id="paint30_linear" x1="28901.7" y1="21042.4" x2="25101" y2="38227.2" gradientUnits="userSpaceOnUse"><stop stop-color="#0059CF"/><stop offset="1" stop-color="#001886"/></linearGradient><linearGradient id="paint31_linear" x1="1154.37" y1="8487.69" x2="186.264" y2="9255.93" gradientUnits="userSpaceOnUse"><stop stop-color="#0059CF"/><stop offset="1" stop-color="#001886"/></linearGradient><linearGradient id="paint32_linear" x1="1324.02" y1="5775.39" x2="1324.02" y2="5092.86" gradientUnits="userSpaceOnUse"><stop stop-color="#C66FD7"/><stop offset="1" stop-color="#8137C2"/></linearGradient><linearGradient id="paint33_linear" x1="417.457" y1="245.415" x2="391.35" y2="255.346" gradientUnits="userSpaceOnUse"><stop stop-color="#008DE7"/><stop offset="1" stop-color="#4FF"/></linearGradient><linearGradient id="paint34_linear" x1="1534.16" y1="5049.66" x2="1534.16" y2="4422.28" gradientUnits="userSpaceOnUse"><stop stop-color="#C66FD7"/><stop offset="1" stop-color="#8137C2"/></linearGradient><linearGradient id="paint35_linear" x1="6927" y1="3039.72" x2="6441.38" y2="3377.62" gradientUnits="userSpaceOnUse"><stop stop-color="#008DE7"/><stop offset="1" stop-color="#4FF"/></linearGradient><linearGradient id="paint36_linear" x1="1659.47" y1="2511.69" x2="1224.1" y2="2420.45" gradientUnits="userSpaceOnUse"><stop stop-color="#001886"/><stop offset="1" stop-color="#1F066C"/></linearGradient><linearGradient id="paint37_linear" x1="935.22" y1="2500.21" x2="785.483" y2="2716.24" gradientUnits="userSpaceOnUse"><stop stop-color="#0059CF"/><stop offset="1" stop-color="#001886"/></linearGradient><linearGradient id="paint38_linear" x1="739.24" y1="2514.28" x2="839.113" y2="2638" gradientUnits="userSpaceOnUse"><stop stop-color="#C66FD7"/><stop offset="1" stop-color="#8137C2"/></linearGradient><linearGradient id="paint40_linear" x1="2914.35" y1="2944.49" x2="2312.89" y2="2867.33" gradientUnits="userSpaceOnUse"><stop stop-color="#001886"/><stop offset="1" stop-color="#1F066C"/></linearGradient><linearGradient id="paint41_linear" x1="1605.28" y1="2945.5" x2="1423.96" y2="3167.76" gradientUnits="userSpaceOnUse"><stop stop-color="#0059CF"/><stop offset="1" stop-color="#001886"/></linearGradient><linearGradient id="paint43_linear" x1="13.818" y1="0" x2="13.818" y2="88.089" gradientUnits="userSpaceOnUse"><stop offset=".536" stop-color="#4FF" stop-opacity="0"/><stop offset="1" stop-color="#4FF" stop-opacity=".46"/></linearGradient><linearGradient id="paint44_linear" x1="13.818" y1="0" x2="13.818" y2="174.75" gradientUnits="userSpaceOnUse"><stop offset=".536" stop-color="#4FF" stop-opacity="0"/><stop offset="1" stop-color="#4FF" stop-opacity=".46"/></linearGradient><linearGradient id="paint45_linear" x1="19.431" y1="0" x2="19.431" y2="215.566" gradientUnits="userSpaceOnUse"><stop offset=".516" stop-color="#F1B7FF" stop-opacity="0"/><stop offset=".677" stop-color="#DE99EF" stop-opacity="0"/><stop offset=".833" stop-color="#CB7DE0" stop-opacity=".37"/><stop offset="1" stop-color="#BE69D5" stop-opacity=".4"/></linearGradient><linearGradient id="paint46_linear" x1="19.431" y1="0" x2="19.431" y2="215.566" gradientUnits="userSpaceOnUse"><stop offset=".641" stop-color="#F1B7FF" stop-opacity="0"/><stop offset=".75" stop-color="#DE99EF" stop-opacity=".08"/><stop offset=".844" stop-color="#CB7DE0" stop-opacity=".44"/><stop offset="1" stop-color="#BE69D5" stop-opacity=".4"/></linearGradient><linearGradient id="paint47_linear" x1="12.465" y1="0" x2="12.465" y2="215.566" gradientUnits="userSpaceOnUse"><stop offset=".641" stop-color="#F1B7FF" stop-opacity="0"/><stop offset=".75" stop-color="#DE99EF" stop-opacity=".08"/><stop offset=".844" stop-color="#CB7DE0" stop-opacity=".44"/><stop offset="1" stop-color="#BE69D5" stop-opacity=".4"/></linearGradient><filter id="filter0_f" x="85.802" y="67.283" width="532.232" height="321.885" filterUnits="userSpaceOnUse" color-interpolation-filters="sRGB"><feFlood flood-opacity="0" result="BackgroundImageFix"/><feBlend in="SourceGraphic" in2="BackgroundImageFix" result="shape"/><feGaussianBlur stdDeviation="8.636" result="effect1_foregroundBlur"/></filter><filter id="filter1_dddddd" x="82.043" y="35.408" width="515.028" height="489.956" filterUnits="userSpaceOnUse" color-interpolation-filters="sRGB"><feFlood flood-opacity="0" result="BackgroundImageFix"/><feColorMatrix in="SourceAlpha" values="0 0 0 0 0 0 0 0 0 0 0 0 0 0 0 0 0 0 127 0"/><feOffset dy="10.05"/><feGaussianBlur stdDeviation="1.458"/><feColorMatrix values="0 0 0 0 0 0 0 0 0 0 0 0 0 0 0 0 0 0 0.0506062 0"/><feBlend in2="BackgroundImageFix" result="effect1_dropShadow"/><feColorMatrix in="SourceAlpha" values="0 0 0 0 0 0 0 0 0 0 0 0 0 0 0 0 0 0 127 0"/><feOffset dy="19.08"/><feGaussianBlur stdDeviation="3.503"/><feColorMatrix values="0 0 0 0 0 0 0 0 0 0 0 0 0 0 0 0 0 0 0.0727007 0"/><feBlend in2="effect1_dropShadow" result="effect2_dropShadow"/><feColorMatrix in="SourceAlpha" values="0 0 0 0 0 0 0 0 0 0 0 0 0 0 0 0 0 0 127 0"/><feOffset dy="27.649"/><feGaussianBlur stdDeviation="6.596"/><feColorMatrix values="0 0 0 0 0 0 0 0 0 0 0 0 0 0 0 0 0 0 0.09 0"/><feBlend in2="effect2_dropShadow" result="effect3_dropShadow"/><feColorMatrix in="SourceAlpha" values="0 0 0 0 0 0 0 0 0 0 0 0 0 0 0 0 0 0 127 0"/><feOffset dy="37.253"/><feGaussianBlur stdDeviation="11.767"/><feColorMatrix values="0 0 0 0 0 0 0 0 0 0 0 0 0 0 0 0 0 0 0.107299 0"/><feBlend in2="effect3_dropShadow" result="effect4_dropShadow"/><feColorMatrix in="SourceAlpha" values="0 0 0 0 0 0 0 0 0 0 0 0 0 0 0 0 0 0 127 0"/><feOffset dy="52.702"/><feGaussianBlur stdDeviation="22.009"/><feColorMatrix values="0 0 0 0 0 0 0 0 0 0 0 0 0 0 0 0 0 0 0.129394 0"/><feBlend in2="effect4_dropShadow" result="effect5_dropShadow"/><feColorMatrix in="SourceAlpha" values="0 0 0 0 0 0 0 0 0 0 0 0 0 0 0 0 0 0 127 0"/><feOffset dy="102.771"/><feGaussianBlur stdDeviation="52.681"/><feColorMatrix values="0 0 0 0 0 0 0 0 0 0 0 0 0 0 0 0 0 0 0.18 0"/><feBlend in2="effect5_dropShadow" result="effect6_dropShadow"/><feBlend in="SourceGraphic" in2="effect6_dropShadow" result="shape"/></filter><filter id="filter2_dddddd" x="244.311" y="307.45" width="189.934" height="173.586" filterUnits="userSpaceOnUse" color-interpolation-filters="sRGB"><feFlood flood-opacity="0" result="BackgroundImageFix"/><feColorMatrix in="SourceAlpha" values="0 0 0 0 0 0 0 0 0 0 0 0 0 0 0 0 0 0 127 0"/><feOffset dy=".86"/><feGaussianBlur stdDeviation=".944"/><feColorMatrix values="0 0 0 0 0 0 0 0 0 0 0 0 0 0 0 0 0 0 0.061852 0"/><feBlend in2="BackgroundImageFix" result="effect1_dropShadow"/><feColorMatrix in="SourceAlpha" values="0 0 0 0 0 0 0 0 0 0 0 0 0 0 0 0 0 0 127 0"/><feOffset dy="2.068"/><feGaussianBlur stdDeviation="2.269"/><feColorMatrix values="0 0 0 0 0 0 0 0 0 0 0 0 0 0 0 0 0 0 0.0888564 0"/><feBlend in2="effect1_dropShadow" result="effect2_dropShadow"/><feColorMatrix in="SourceAlpha" values="0 0 0 0 0 0 0 0 0 0 0 0 0 0 0 0 0 0 127 0"/><feOffset dy="3.893"/><feGaussianBlur stdDeviation="4.271"/><feColorMatrix values="0 0 0 0 0 0 0 0 0 0 0 0 0 0 0 0 0 0 0.11 0"/><feBlend in2="effect2_dropShadow" result="effect3_dropShadow"/><feColorMatrix in="SourceAlpha" values="0 0 0 0 0 0 0 0 0 0 0 0 0 0 0 0 0 0 127 0"/><feOffset dy="6.944"/><feGaussianBlur stdDeviation="7.62"/><feColorMatrix values="0 0 0 0 0 0 0 0 0 0 0 0 0 0 0 0 0 0 0.131144 0"/><feBlend in2="effect3_dropShadow" result="effect4_dropShadow"/><feColorMatrix in="SourceAlpha" values="0 0 0 0 0 0 0 0 0 0 0 0 0 0 0 0 0 0 127 0"/><feOffset dy="12.989"/><feGaussianBlur stdDeviation="14.252"/><feColorMatrix values="0 0 0 0 0 0 0 0 0 0 0 0 0 0 0 0 0 0 0.158148 0"/><feBlend in2="effect4_dropShadow" result="effect5_dropShadow"/><feColorMatrix in="SourceAlpha" values="0 0 0 0 0 0 0 0 0 0 0 0 0 0 0 0 0 0 127 0"/><feOffset dy="31.09"/><feGaussianBlur stdDeviation="34.113"/><feColorMatrix values="0 0 0 0 0 0 0 0 0 0 0 0 0 0 0 0 0 0 0.22 0"/><feBlend in2="effect5_dropShadow" result="effect6_dropShadow"/><feBlend in="SourceGraphic" in2="effect6_dropShadow" result="shape"/></filter><filter id="filter3_f" x="284.996" y="318.675" width="108.286" height="88.953" filterUnits="userSpaceOnUse" color-interpolation-filters="sRGB"><feFlood flood-opacity="0" result="BackgroundImageFix"/><feBlend in="SourceGraphic" in2="BackgroundImageFix" result="shape"/><feGaussianBlur stdDeviation="12.954" result="effect1_foregroundBlur"/></filter><filter id="filter4_f" x="122.636" y="284.994" width="108.286" height="88.953" filterUnits="userSpaceOnUse" color-interpolation-filters="sRGB"><feFlood flood-opacity="0" result="BackgroundImageFix"/><feBlend in="SourceGraphic" in2="BackgroundImageFix" result="shape"/><feGaussianBlur stdDeviation="12.954" result="effect1_foregroundBlur"/></filter><filter id="filter5_f" x="465.492" y="284.994" width="108.286" height="88.953" filterUnits="userSpaceOnUse" color-interpolation-filters="sRGB"><feFlood flood-opacity="0" result="BackgroundImageFix"/><feBlend in="SourceGraphic" in2="BackgroundImageFix" result="shape"/><feGaussianBlur stdDeviation="12.954" result="effect1_foregroundBlur"/></filter><filter id="filter6_f" x="538.9" y="159.77" width="108.286" height="88.953" filterUnits="userSpaceOnUse" color-interpolation-filters="sRGB"><feFlood flood-opacity="0" result="BackgroundImageFix"/><feBlend in="SourceGraphic" in2="BackgroundImageFix" result="shape"/><feGaussianBlur stdDeviation="12.954" result="effect1_foregroundBlur"/></filter><filter id="filter7_f" x="467.217" y="284.994" width="108.286" height="88.953" filterUnits="userSpaceOnUse" color-interpolation-filters="sRGB"><feFlood flood-opacity="0" result="BackgroundImageFix"/><feBlend in="SourceGraphic" in2="BackgroundImageFix" result="shape"/><feGaussianBlur stdDeviation="12.954" result="effect1_foregroundBlur"/></filter><filter id="filter8_f" x="122.636" y="284.994" width="108.286" height="88.953" filterUnits="userSpaceOnUse" color-interpolation-filters="sRGB"><feFlood flood-opacity="0" result="BackgroundImageFix"/><feBlend in="SourceGraphic" in2="BackgroundImageFix" result="shape"/><feGaussianBlur stdDeviation="12.954" result="effect1_foregroundBlur"/></filter><filter id="filter9_dddddd" x="426.534" y="275.496" width="189.934" height="173.586" filterUnits="userSpaceOnUse" color-interpolation-filters="sRGB"><feFlood flood-opacity="0" result="BackgroundImageFix"/><feColorMatrix in="SourceAlpha" values="0 0 0 0 0 0 0 0 0 0 0 0 0 0 0 0 0 0 127 0"/><feOffset dy=".86"/><feGaussianBlur stdDeviation=".944"/><feColorMatrix values="0 0 0 0 0 0 0 0 0 0 0 0 0 0 0 0 0 0 0.061852 0"/><feBlend in2="BackgroundImageFix" result="effect1_dropShadow"/><feColorMatrix in="SourceAlpha" values="0 0 0 0 0 0 0 0 0 0 0 0 0 0 0 0 0 0 127 0"/><feOffset dy="2.068"/><feGaussianBlur stdDeviation="2.269"/><feColorMatrix values="0 0 0 0 0 0 0 0 0 0 0 0 0 0 0 0 0 0 0.0888564 0"/><feBlend in2="effect1_dropShadow" result="effect2_dropShadow"/><feColorMatrix in="SourceAlpha" values="0 0 0 0 0 0 0 0 0 0 0 0 0 0 0 0 0 0 127 0"/><feOffset dy="3.893"/><feGaussianBlur stdDeviation="4.271"/><feColorMatrix values="0 0 0 0 0 0 0 0 0 0 0 0 0 0 0 0 0 0 0.11 0"/><feBlend in2="effect2_dropShadow" result="effect3_dropShadow"/><feColorMatrix in="SourceAlpha" values="0 0 0 0 0 0 0 0 0 0 0 0 0 0 0 0 0 0 127 0"/><feOffset dy="6.944"/><feGaussianBlur stdDeviation="7.62"/><feColorMatrix values="0 0 0 0 0 0 0 0 0 0 0 0 0 0 0 0 0 0 0.131144 0"/><feBlend in2="effect3_dropShadow" result="effect4_dropShadow"/><feColorMatrix in="SourceAlpha" values="0 0 0 0 0 0 0 0 0 0 0 0 0 0 0 0 0 0 127 0"/><feOffset dy="12.989"/><feGaussianBlur stdDeviation="14.252"/><feColorMatrix values="0 0 0 0 0 0 0 0 0 0 0 0 0 0 0 0 0 0 0.158148 0"/><feBlend in2="effect4_dropShadow" result="effect5_dropShadow"/><feColorMatrix in="SourceAlpha" values="0 0 0 0 0 0 0 0 0 0 0 0 0 0 0 0 0 0 127 0"/><feOffset dy="31.09"/><feGaussianBlur stdDeviation="34.113"/><feColorMatrix values="0 0 0 0 0 0 0 0 0 0 0 0 0 0 0 0 0 0 0.22 0"/><feBlend in2="effect5_dropShadow" result="effect6_dropShadow"/><feBlend in="SourceGraphic" in2="effect6_dropShadow" result="shape"/></filter><filter id="filter10_dddddd" x="498.215" y="148.544" width="189.934" height="173.586" filterUnits="userSpaceOnUse" color-interpolation-filters="sRGB"><feFlood flood-opacity="0" result="BackgroundImageFix"/><feColorMatrix in="SourceAlpha" values="0 0 0 0 0 0 0 0 0 0 0 0 0 0 0 0 0 0 127 0"/><feOffset dy=".86"/><feGaussianBlur stdDeviation=".944"/><feColorMatrix values="0 0 0 0 0 0 0 0 0 0 0 0 0 0 0 0 0 0 0.061852 0"/><feBlend in2="BackgroundImageFix" result="effect1_dropShadow"/><feColorMatrix in="SourceAlpha" values="0 0 0 0 0 0 0 0 0 0 0 0 0 0 0 0 0 0 127 0"/><feOffset dy="2.068"/><feGaussianBlur stdDeviation="2.269"/><feColorMatrix values="0 0 0 0 0 0 0 0 0 0 0 0 0 0 0 0 0 0 0.0888564 0"/><feBlend in2="effect1_dropShadow" result="effect2_dropShadow"/><feColorMatrix in="SourceAlpha" values="0 0 0 0 0 0 0 0 0 0 0 0 0 0 0 0 0 0 127 0"/><feOffset dy="3.893"/><feGaussianBlur stdDeviation="4.271"/><feColorMatrix values="0 0 0 0 0 0 0 0 0 0 0 0 0 0 0 0 0 0 0.11 0"/><feBlend in2="effect2_dropShadow" result="effect3_dropShadow"/><feColorMatrix in="SourceAlpha" values="0 0 0 0 0 0 0 0 0 0 0 0 0 0 0 0 0 0 127 0"/><feOffset dy="6.944"/><feGaussianBlur stdDeviation="7.62"/><feColorMatrix values="0 0 0 0 0 0 0 0 0 0 0 0 0 0 0 0 0 0 0.131144 0"/><feBlend in2="effect3_dropShadow" result="effect4_dropShadow"/><feColorMatrix in="SourceAlpha" values="0 0 0 0 0 0 0 0 0 0 0 0 0 0 0 0 0 0 127 0"/><feOffset dy="12.989"/><feGaussianBlur stdDeviation="14.252"/><feColorMatrix values="0 0 0 0 0 0 0 0 0 0 0 0 0 0 0 0 0 0 0.158148 0"/><feBlend in2="effect4_dropShadow" result="effect5_dropShadow"/><feColorMatrix in="SourceAlpha" values="0 0 0 0 0 0 0 0 0 0 0 0 0 0 0 0 0 0 127 0"/><feOffset dy="31.09"/><feGaussianBlur stdDeviation="34.113"/><feColorMatrix values="0 0 0 0 0 0 0 0 0 0 0 0 0 0 0 0 0 0 0.22 0"/><feBlend in2="effect5_dropShadow" result="effect6_dropShadow"/><feBlend in="SourceGraphic" in2="effect6_dropShadow" result="shape"/></filter><filter id="filter11_dddddd" x="11.998" y="148.544" width="189.934" height="173.586" filterUnits="userSpaceOnUse" color-interpolation-filters="sRGB"><feFlood flood-opacity="0" result="BackgroundImageFix"/><feColorMatrix in="SourceAlpha" values="0 0 0 0 0 0 0 0 0 0 0 0 0 0 0 0 0 0 127 0"/><feOffset dy=".86"/><feGaussianBlur stdDeviation=".944"/><feColorMatrix values="0 0 0 0 0 0 0 0 0 0 0 0 0 0 0 0 0 0 0.061852 0"/><feBlend in2="BackgroundImageFix" result="effect1_dropShadow"/><feColorMatrix in="SourceAlpha" values="0 0 0 0 0 0 0 0 0 0 0 0 0 0 0 0 0 0 127 0"/><feOffset dy="2.068"/><feGaussianBlur stdDeviation="2.269"/><feColorMatrix values="0 0 0 0 0 0 0 0 0 0 0 0 0 0 0 0 0 0 0.0888564 0"/><feBlend in2="effect1_dropShadow" result="effect2_dropShadow"/><feColorMatrix in="SourceAlpha" values="0 0 0 0 0 0 0 0 0 0 0 0 0 0 0 0 0 0 127 0"/><feOffset dy="3.893"/><feGaussianBlur stdDeviation="4.271"/><feColorMatrix values="0 0 0 0 0 0 0 0 0 0 0 0 0 0 0 0 0 0 0.11 0"/><feBlend in2="effect2_dropShadow" result="effect3_dropShadow"/><feColorMatrix in="SourceAlpha" values="0 0 0 0 0 0 0 0 0 0 0 0 0 0 0 0 0 0 127 0"/><feOffset dy="6.944"/><feGaussianBlur stdDeviation="7.62"/><feColorMatrix values="0 0 0 0 0 0 0 0 0 0 0 0 0 0 0 0 0 0 0.131144 0"/><feBlend in2="effect3_dropShadow" result="effect4_dropShadow"/><feColorMatrix in="SourceAlpha" values="0 0 0 0 0 0 0 0 0 0 0 0 0 0 0 0 0 0 127 0"/><feOffset dy="12.989"/><feGaussianBlur stdDeviation="14.252"/><feColorMatrix values="0 0 0 0 0 0 0 0 0 0 0 0 0 0 0 0 0 0 0.158148 0"/><feBlend in2="effect4_dropShadow" result="effect5_dropShadow"/><feColorMatrix in="SourceAlpha" values="0 0 0 0 0 0 0 0 0 0 0 0 0 0 0 0 0 0 127 0"/><feOffset dy="31.09"/><feGaussianBlur stdDeviation="34.113"/><feColorMatrix values="0 0 0 0 0 0 0 0 0 0 0 0 0 0 0 0 0 0 0.22 0"/><feBlend in2="effect5_dropShadow" result="effect6_dropShadow"/><feBlend in="SourceGraphic" in2="effect6_dropShadow" result="shape"/></filter><filter id="filter12_dddddd" x="81.952" y="273.769" width="189.934" height="173.586" filterUnits="userSpaceOnUse" color-interpolation-filters="sRGB"><feFlood flood-opacity="0" result="BackgroundImageFix"/><feColorMatrix in="SourceAlpha" values="0 0 0 0 0 0 0 0 0 0 0 0 0 0 0 0 0 0 127 0"/><feOffset dy=".86"/><feGaussianBlur stdDeviation=".944"/><feColorMatrix values="0 0 0 0 0 0 0 0 0 0 0 0 0 0 0 0 0 0 0.061852 0"/><feBlend in2="BackgroundImageFix" result="effect1_dropShadow"/><feColorMatrix in="SourceAlpha" values="0 0 0 0 0 0 0 0 0 0 0 0 0 0 0 0 0 0 127 0"/><feOffset dy="2.068"/><feGaussianBlur stdDeviation="2.269"/><feColorMatrix values="0 0 0 0 0 0 0 0 0 0 0 0 0 0 0 0 0 0 0.0888564 0"/><feBlend in2="effect1_dropShadow" result="effect2_dropShadow"/><feColorMatrix in="SourceAlpha" values="0 0 0 0 0 0 0 0 0 0 0 0 0 0 0 0 0 0 127 0"/><feOffset dy="3.893"/><feGaussianBlur stdDeviation="4.271"/><feColorMatrix values="0 0 0 0 0 0 0 0 0 0 0 0 0 0 0 0 0 0 0.11 0"/><feBlend in2="effect2_dropShadow" result="effect3_dropShadow"/><feColorMatrix in="SourceAlpha" values="0 0 0 0 0 0 0 0 0 0 0 0 0 0 0 0 0 0 127 0"/><feOffset dy="6.944"/><feGaussianBlur stdDeviation="7.62"/><feColorMatrix values="0 0 0 0 0 0 0 0 0 0 0 0 0 0 0 0 0 0 0.131144 0"/><feBlend in2="effect3_dropShadow" result="effect4_dropShadow"/><feColorMatrix in="SourceAlpha" values="0 0 0 0 0 0 0 0 0 0 0 0 0 0 0 0 0 0 127 0"/><feOffset dy="12.989"/><feGaussianBlur stdDeviation="14.252"/><feColorMatrix values="0 0 0 0 0 0 0 0 0 0 0 0 0 0 0 0 0 0 0.158148 0"/><feBlend in2="effect4_dropShadow" result="effect5_dropShadow"/><feColorMatrix in="SourceAlpha" values="0 0 0 0 0 0 0 0 0 0 0 0 0 0 0 0 0 0 127 0"/><feOffset dy="31.09"/><feGaussianBlur stdDeviation="34.113"/><feColorMatrix values="0 0 0 0 0 0 0 0 0 0 0 0 0 0 0 0 0 0 0.22 0"/><feBlend in2="effect5_dropShadow" result="effect6_dropShadow"/><feBlend in="SourceGraphic" in2="effect6_dropShadow" result="shape"/></filter><filter id="filter13_f" x="52.682" y="159.77" width="108.286" height="88.953" filterUnits="userSpaceOnUse" color-interpolation-filters="sRGB"><feFlood flood-opacity="0" result="BackgroundImageFix"/><feBlend in="SourceGraphic" in2="BackgroundImageFix" result="shape"/><feGaussianBlur stdDeviation="12.954" result="effect1_foregroundBlur"/></filter><filter id="filter14_f" x="255.631" y="167.542" width="75.751" height="93.271" filterUnits="userSpaceOnUse" color-interpolation-filters="sRGB"><feFlood flood-opacity="0" result="BackgroundImageFix"/><feBlend in="SourceGraphic" in2="BackgroundImageFix" result="shape"/><feGaussianBlur stdDeviation="12.954" result="effect1_foregroundBlur"/></filter><filter id="filter15_f" x="198.633" y="135.588" width="77.294" height="92.407" filterUnits="userSpaceOnUse" color-interpolation-filters="sRGB"><feFlood flood-opacity="0" result="BackgroundImageFix"/><feBlend in="SourceGraphic" in2="BackgroundImageFix" result="shape"/><feGaussianBlur stdDeviation="12.954" result="effect1_foregroundBlur"/></filter><filter id="filter16_f" x="299.675" y="195.178" width="95.862" height="111.366" filterUnits="userSpaceOnUse" color-interpolation-filters="sRGB"><feFlood flood-opacity="0" result="BackgroundImageFix"/><feBlend in="SourceGraphic" in2="BackgroundImageFix" result="shape"/><feGaussianBlur stdDeviation="12.954" result="effect1_foregroundBlur"/></filter><filter id="filter17_f" x="414.537" y="172.724" width="68.226" height="80.238" filterUnits="userSpaceOnUse" color-interpolation-filters="sRGB"><feFlood flood-opacity="0" result="BackgroundImageFix"/><feBlend in="SourceGraphic" in2="BackgroundImageFix" result="shape"/><feGaussianBlur stdDeviation="12.954" result="effect1_foregroundBlur"/></filter><filter id="filter18_f" x="371.356" y="199.496" width="68.226" height="80.238" filterUnits="userSpaceOnUse" color-interpolation-filters="sRGB"><feFlood flood-opacity="0" result="BackgroundImageFix"/><feBlend in="SourceGraphic" in2="BackgroundImageFix" result="shape"/><feGaussianBlur stdDeviation="12.954" result="effect1_foregroundBlur"/></filter><radialGradient id="paint2_radial" cx="0" cy="0" r="1" gradientUnits="userSpaceOnUse" gradientTransform="matrix(546.863 0 0 1020.05 2227.1 5991.82)"><stop stop-color="#0059CF"/><stop offset=".37" stop-color="#001886"/><stop offset=".77" stop-color="#971E87"/><stop offset="1" stop-color="#8137C2"/></radialGradient><radialGradient id="paint39_radial" cx="0" cy="0" r="1" gradientUnits="userSpaceOnUse" gradientTransform="translate(240.052 193.891) scale(32.4548)"><stop stop-color="#0059CF"/><stop offset=".37" stop-color="#001886"/><stop offset=".77" stop-color="#971E87"/><stop offset="1" stop-color="#8137C2"/></radialGradient><radialGradient id="paint42_radial" cx="0" cy="0" r="1" gradientUnits="userSpaceOnUse" gradientTransform="matrix(546.864 0 0 1020.05 2227.1 5991.62)"><stop stop-color="#0059CF"/><stop offset=".37" stop-color="#001886"/><stop offset=".77" stop-color="#971E87"/><stop offset="1" stop-color="#8137C2"/></radialGradient></defs></svg>